# xmcd
# 
# Track frame offsets:
#     150
#     14698
#     26906
#     44915
#     61853
#     79014
#     94645
#     110329
#     128099
#     144420
#     162310
#     177545
#     195802
# 
# Disc length: 2862
# 
# Revision: 0
# Processed by: cddbd v1.5.2PL0 Copyright (c) Steve Scherf et al.
# Submitted via: fre:ac v1.0.27
# 
DISCID=ad0b2c0d
DTITLE=Dustin Perkins - Words
DYEAR=2013
DGENRE=Country
TTITLE0=One Chance
TTITLE1=No Kind Of Life
TTITLE2=Knock Knock
TTITLE3=Get Better
TTITLE4=Mr Dream Man
TTITLE5=Fit To Be A Queen
TTITLE6=Run and Hide
TTITLE7=The Picture
TTITLE8=Linda's Song
TTITLE9=Pain Like This
TTITLE10=Nothing Like You
TTITLE11=Forgotten Dreams
TTITLE12=This Place
EXTD=
EXTT0=
EXTT1=
EXTT2=
EXTT3=
EXTT4=
EXTT5=
EXTT6=
EXTT7=
EXTT8=
EXTT9=
EXTT10=
EXTT11=
EXTT12=
PLAYORDER=
